<svg width="32" height="32" fill="none" xmlns="http://www.w3.org/2000/svg"><path d="M12.227 20.773a.989.989 0 01-.707-.293 1.006 1.006 0 010-1.413l7.547-7.547a1.006 1.006 0 011.413 0 1.006 1.006 0 010 1.413l-7.547 7.547a.967.967 0 01-.706.293z" fill="#ED1C25" fill-opacity=".64"/><path d="M19.773 20.773a.99.99 0 01-.706-.293l-7.547-7.547a1.006 1.006 0 010-1.413 1.006 1.006 0 011.413 0l7.547 7.547a1.006 1.006 0 010 1.413.99.99 0 01-.707.293z" fill="#ED1C25" fill-opacity=".64"/><path d="M20 30.333h-8C4.76 30.333 1.666 27.24 1.666 20v-8C1.666 4.76 4.76 1.667 12 1.667h8c7.24 0 10.333 3.093 10.333 10.333v8c0 7.24-3.093 10.333-10.333 10.333zM12 3.667c-6.147 0-8.334 2.186-8.334 8.333v8c0 6.147 2.187 8.333 8.334 8.333h8c6.146 0 8.333-2.186 8.333-8.333v-8c0-6.147-2.186-8.333-8.333-8.333h-8z" fill="#ED1C25" fill-opacity=".64"/></svg>