<svg width="40" height="40" fill="none" xmlns="http://www.w3.org/2000/svg"><path d="M27.083 37.5a2.917 2.917 0 100-5.833 2.917 2.917 0 000 5.833zm-13.333 0a2.917 2.917 0 100-5.833 2.917 2.917 0 000 5.833z" fill="#329F56"/><path opacity=".4" d="M8.067 6.567l-.334 4.083a1.322 1.322 0 001.334 1.433h25.516c.7 0 1.284-.533 1.334-1.233.216-2.95-2.034-5.35-4.984-5.35h-20.45a4.544 4.544 0 00-1.016-2.017 4.367 4.367 0 00-3.184-1.4h-2.95a1.26 1.26 0 00-1.25 1.25c0 .684.567 1.25 1.25 1.25h2.9c.517 0 1 .217 1.35.584.35.383.517.883.484 1.4z" fill="#329F56"/><path d="M34.183 14.583H8.617c-.7 0-1.267.534-1.334 1.217l-.6 7.25c-.233 2.833 2 5.283 4.85 5.283h18.534c2.5 0 4.7-2.05 4.883-4.55L35.5 16a1.304 1.304 0 00-1.317-1.417z" fill="#329F56"/></svg>