<svg width="80" height="80" fill="none" xmlns="http://www.w3.org/2000/svg"><path d="M.797.223C-.016.676.016.24 0 14.02c0 9.64.047 12.953.188 13.25.39.86.437.86 8.234.86 5.234 0 7.297-.048 7.594-.188.609-.281.859-.89.859-2.156v-1.094h.86c.734 0 .984.094 1.828.64l.984.625.078 6.985c.078 6.781.094 7 .422 7.61.39.734 1.156 1.484 1.922 1.89.515.281 1.125.297 9.922.344 6.89.03 9.484 0 9.812-.141.234-.11.531-.375.656-.625.375-.703.297-1.203-.297-1.797l-.53-.531h-12l-.345-1.078c-.828-2.547-2.875-4.594-5.375-5.344l-1.062-.328v-5.265l1.375.593c1.625.719 4.39 1.625 6.172 2.031 2.437.578 7.844 1.453 8.875 1.438h1.016l.718.843c.407.485 1.032 1.125 1.407 1.438 1.359 1.14 3.953 2.078 5.75 2.078 2.406 0 5.28-1.328 6.874-3.172.704-.828 1.563-2.36 1.891-3.39.5-1.532.469-3.907-.062-5.438-.563-1.64-1.282-2.734-2.516-3.89-1.766-1.626-3.797-2.438-6.188-2.438-2.39 0-4.5.844-6.218 2.469l-1.063.984-3.656-2.016c-2.016-1.109-3.828-2.203-4.016-2.421-.672-.75-.39-2.079.532-2.547.25-.125 4.937-.172 16.64-.172h16.313l.344 1.078a8.257 8.257 0 005.374 5.36l1.063.343v12.094l-1.047.328c-2.516.75-4.562 2.797-5.39 5.344l-.344 1.078h-12l-.532.531c-.593.594-.671 1.094-.296 1.797.125.25.422.516.656.625.328.14 2.922.172 9.812.14 9.266-.046 9.375-.046 10-.39.735-.39 1.485-1.156 1.891-1.922.281-.516.297-1.203.344-13.266.047-14.468.11-13.703-1.203-15.015-1.297-1.297-.813-1.25-12.813-1.25H52.891l-4.063-3.14c-4.234-3.266-5.203-3.923-6.64-4.47-1.922-.75-1.516-.734-13.704-.796l-11.609-.047v-.625c0-.797-.328-1.438-.86-1.672C15.407-.09 1.313-.058.798.223zM13.75 14.067v10.937H3.125V3.13H13.75v10.938zM40.688 6.05c1.25.485 1.671.766 4.515 2.922l2.469 1.89-6.766.079-6.765.078-.891.437c-1.047.516-1.75 1.25-2.281 2.422-.328.735-.375 1.016-.313 2.125.078 1.516.485 2.36 1.578 3.297.36.313 2.594 1.656 4.953 2.953 4.735 2.625 5 2.844 5 4.11 0 1.36-.859 2.234-2.203 2.234-.937 0-7.343-1.14-9.156-1.625-3.234-.89-6.781-2.469-9.719-4.36l-1.625-1.046h-2.609V5.614l11.453.047c11.375.046 11.438.046 12.36.39zm33.374 8.328c.266.266.313.516.313 1.72 0 .874-.063 1.405-.156 1.405-.281 0-1.328-.578-1.86-1.03-.5-.423-1.421-1.845-1.421-2.22 0-.14.39-.187 1.406-.187 1.203 0 1.453.047 1.719.312zm-23.14 6.813c2.172.687 3.672 2.453 4.078 4.797.688 3.906-3.016 7.578-6.906 6.86a6.212 6.212 0 01-3.407-1.845l-.78-.812.53-.781c1.032-1.532 1.157-3.75.329-5.454l-.438-.89.688-.61a6.005 6.005 0 015.906-1.265zM24.703 36.567c1.063.547 2.485 2.234 2.485 2.969 0 .093-.532.156-1.407.156-1.906 0-2.031-.125-2.031-2.031 0-.875.063-1.407.156-1.407.094 0 .453.14.797.313zm49.672 1.094c0 1.203-.047 1.453-.313 1.718-.265.266-.515.313-1.718.313-.875 0-1.406-.063-1.406-.156 0-.72 1.406-2.407 2.453-2.954.968-.515.984-.484.984 1.079z" fill="#265736"/><path d="M64.281 25.848c-.578.578-.672 1.094-.312 1.797.734 1.406 2.906.781 2.906-.86 0-.593-.922-1.468-1.563-1.468-.359 0-.64.14-1.03.531zm-16.25 14.375c-.578.578-.672 1.094-.312 1.797.734 1.406 2.906.781 2.906-.86 0-.593-.922-1.468-1.563-1.468-.359 0-.64.14-1.03.531zm5.922 11.734c-1.562.282-2.562.625-4.172 1.453-1.843.954-3.328 2.157-4.906 3.985l-1.297 1.5-5.266.047c-5.03.047-5.296.062-6 .39-1.03.47-2.234 1.641-2.734 2.688-.375.75-.437 1.062-.437 2.234 0 .766-.032 1.375-.063 1.375-.015 0-.547-.265-1.172-.578-.968-.5-1.734-1.203-5.968-5.39-5.641-5.579-5.766-5.672-8.032-5.672-1.11 0-1.469.078-2.203.422-1.234.562-2.078 1.39-2.672 2.593-.469.938-.515 1.188-.515 2.375.015 2.282.125 2.438 5.515 7.86 2.547 2.562 5.172 5.109 5.813 5.64 2.906 2.422 5.625 3.781 9.531 4.75l1.64.406 16.063.047c15.672.063 16.047.063 16.047.36 0 .156.078.484.188.703.39.86.437.86 8.25.86 7.812 0 7.859 0 8.25-.86.14-.297.187-3.61.187-13.219 0-13.906.031-13.453-.86-13.86-.296-.14-2.359-.187-7.593-.187-6.14 0-7.25.032-7.64.235-.266.14-.47.297-.47.359 0 .078-.093.25-.203.39-.172.25-.28.235-1.484-.203-2.453-.89-5.328-1.156-7.797-.703zm5.656 3.266c.516.14 1.516.531 2.235.89l1.281.626v18.265H47.937c-16.703 0-16.921-.015-19.703-.937-1.625-.547-3.484-1.469-4.875-2.39-1.203-.798-11.28-10.798-11.578-11.47-.297-.687-.281-1.203.094-1.922.516-1 1.719-1.484 2.766-1.078.234.078 2.437 2.141 4.89 4.563 2.453 2.437 4.922 4.75 5.5 5.156 1.235.875 3.188 1.828 4.813 2.313 1.156.359 1.25.359 11.703.421l10.531.047.453-.421c.469-.47.594-1.344.266-1.97-.39-.734-.64-.75-10.094-.75-8.578 0-8.89-.015-9.39-.312-.782-.484-1.157-1.187-1.079-2.078.078-.89.47-1.484 1.22-1.86.468-.25 1.093-.28 5.796-.28 2.89 0 5.422-.063 5.625-.141.219-.078 1-.875 1.75-1.766 1.672-1.953 2.188-2.437 3.625-3.39 1.219-.813 2.39-1.297 3.969-1.657 1.265-.28 4.047-.203 5.39.141zm17.266 10.719v10.937H66.25V55.004h10.625v10.938z" fill="#265736"/></svg>