<svg width="80" height="80" fill="none" xmlns="http://www.w3.org/2000/svg"><g clip-path="url(#clip0_15_1702)" fill="#265736"><path d="M38.86.234c-4.97.954-9.016 4-11.282 8.485l-.531 1.078-12.938 4.031C7 16.047.985 17.968.75 18.094a1.47 1.47 0 00-.578 1.953c.094.187 2.312 2.5 4.937 5.125l4.766 4.781-3.062 5.125c-2.297 3.844-3.063 5.25-3.063 5.625 0 1.031.266 1.188 5.156 2.813l4.532 1.515V57.22c0 11.187.015 12.218.265 12.64.14.235.375.485.5.547C15.906 71.11 39.797 80 39.984 80c.141 0 6.704-2.156 14.579-4.781 12.953-4.313 14.375-4.813 14.734-5.25l.39-.469V44.391l2.47-.782c1.343-.422 3.468-1.093 4.734-1.484 1.25-.39 2.422-.86 2.61-1.031.405-.39.562-.953.421-1.532-.063-.265-1.734-2.062-4.813-5.156l-4.718-4.718 4.64-4.657c2.547-2.547 4.703-4.797 4.797-4.984.422-.844.016-1.781-.953-2.14-.375-.141-5.14-1.626-10.594-3.298-13.187-4.062-11.828-3.578-12.047-4.265-.265-.875-1.156-2.594-1.843-3.61-2.094-3.078-5.422-5.359-9.157-6.28C43.547.03 40.47-.063 38.86.233zm5.828 3.282c4.296 1.109 7.89 4.718 9 9.062.39 1.531.39 4.61 0 6.094C52 25.047 45.78 29.047 39.375 27.906c-4.36-.781-8.219-4.093-9.61-8.281-2.468-7.375 2.11-14.922 9.891-16.344 1.063-.203 3.844-.062 5.032.235zM25.984 14.672c-.171 2.187.47 5.594 1.375 7.39.172.329.297.61.297.657 0 .031-3.453 1.218-7.656 2.625l-7.656 2.547-3.906-3.907-3.907-3.906 10.594-3.312c5.813-1.813 10.656-3.313 10.766-3.313.14-.015.172.297.094 1.219zm40.688 2.703l8.797 2.703-3.906 3.906-3.907 3.907-6.28-2.094a498.621 498.621 0 01-6.345-2.125c-.03-.031.172-.5.453-1.031 1.016-2.016 1.5-3.922 1.657-6.5.093-1.563.11-1.625.422-1.547.187.047 4.28 1.297 9.109 2.781zm-36.125 9.25c4.687 4.703 11.719 5.922 17.656 3.078 1.5-.719 3.672-2.203 4.422-3.015l.36-.407 5 1.657c2.734.921 4.984 1.703 4.984 1.75 0 .046-5.172 1.796-11.485 3.906L40 37.422l-11.484-3.828c-6.313-2.11-11.485-3.86-11.485-3.907 0-.062 10.797-3.75 12.313-4.203.015-.015.562.5 1.203 1.141zm-5.203 9.188l12.312 4.109-2.437 4.062c-1.344 2.235-2.453 4.094-2.485 4.125-.03.016-5.687-1.828-12.562-4.125L7.656 39.812l.203-.343c.094-.203 1.204-2.063 2.454-4.14 1.64-2.735 2.328-3.75 2.5-3.688.125.047 5.765 1.922 12.53 4.172zm46.25-.391l3.875 3.875-13.172 4.125c-7.234 2.266-13.219 4.156-13.313 4.172-.156.047-6.265-7.532-6.218-7.719.031-.11 24.375-8.281 24.734-8.297.125-.015 1.969 1.719 4.094 3.844zM44.61 47.297c3.078 3.89 3.14 3.922 4.53 3.531.438-.125 4.454-1.39 8.938-2.797 4.485-1.406 8.235-2.562 8.328-2.562.11 0 .157 3.656.157 11.234v11.234l-12.297 4.11c-6.782 2.25-12.407 4.125-12.5 4.172-.157.047-.203-3.281-.203-16.313 0-9.156.062-16.312.14-16.234.063.094 1.375 1.719 2.906 3.625zm-6.235 28.75c-.031.047-4.937-1.75-10.906-3.984L16.64 68.016l-.047-10.97c-.016-6.015-.016-10.952.015-10.952.016 0 3.72 1.234 8.235 2.734 4.515 1.5 8.36 2.734 8.547 2.734.843 0 1.14-.343 3.062-3.546l1.906-3.172.047 15.578c.016 8.562 0 15.594-.03 15.625z"/><path d="M48.594 9.625c-.219.14-2.235 2.094-4.485 4.328l-4.093 4.078-1.063-1.015c-.578-.563-1.234-1.11-1.437-1.22-.532-.296-1.344-.077-1.797.47-.813.953-.485 1.64 1.984 4 1.516 1.468 1.969 1.718 2.719 1.53.453-.108 9.203-8.655 10.062-9.827.61-.828.594-1.39-.078-2.063-.593-.594-1.187-.687-1.812-.281zM23.828 57.953c-.5.219-.86.719-.969 1.297-.062.453 0 .64.391 1.078.39.438.578.531 1.11.531 1.828 0 2.062-2.656.25-2.968-.25-.032-.61-.016-.782.062zm5.766 2.141c-.938.453-1.14 1.687-.39 2.375.484.468 3.812 1.765 4.546 1.781 1.281.047 1.969-1.484 1.14-2.516-.265-.312-3.327-1.578-4.343-1.797-.297-.046-.656 0-.953.157zm-6.016 4.516c-.828.453-.968 1.734-.25 2.39.453.422 9.86 3.938 10.531 3.938 1.36 0 1.922-1.86.813-2.688-.516-.39-9.797-3.875-10.297-3.875-.219.016-.578.11-.797.234z"/></g><defs><clipPath id="clip0_15_1702"><path fill="#fff" d="M0 0h80v80H0z"/></clipPath></defs></svg>