<svg width="80" height="80" fill="none" xmlns="http://www.w3.org/2000/svg"><g clip-path="url(#clip0_15_1675)" fill="#265736"><path d="M11.328.14c-.172.079-.453.298-.625.485-.297.328-.312.594-.36 4.281-.046 4.5.126 6.11.97 8.563 1.593 4.656 5.453 8.64 10.062 10.375 2.422.906 3.313 1.031 7.688 1.11l3.984.077 1.328 1.282c1.563 1.53 1.953 1.812 2.516 1.812.547 0 1.343-.672 1.468-1.234.157-.703-.172-1.235-1.64-2.735l-1.375-1.422-.078-3.984c-.047-2.969-.141-4.281-.344-5.156-1.578-6.985-7.125-12.219-14.14-13.36-1.61-.25-8.876-.328-9.454-.093zm10.313 3.438c3.906 1.047 7.312 3.844 9.062 7.438 1.031 2.078 1.344 3.468 1.438 6.25l.078 2.343-6.469-6.422c-3.547-3.53-6.625-6.546-6.844-6.687-.625-.406-1.218-.313-1.812.281-.594.594-.688 1.188-.282 1.813.141.219 3.157 3.297 6.688 6.844l6.422 6.468-2.344-.078c-2.781-.094-4.172-.406-6.25-1.437-3.594-1.75-6.39-5.157-7.437-9.063-.282-1.047-.36-1.812-.422-4.75l-.063-3.484 3.485.062c2.937.063 3.703.14 4.75.422zM41.64.266c-3.296 1.187-4.25 5.25-1.796 7.703.953.953 1.86 1.328 3.281 1.328 1.422 0 2.328-.375 3.281-1.328.953-.953 1.328-1.86 1.328-3.282 0-1.421-.375-2.328-1.328-3.28-1.25-1.25-3.172-1.704-4.765-1.141zm2.579 3.406c.922.922.218 2.5-1.11 2.5-.53 0-.718-.094-1.109-.531-.39-.438-.453-.625-.39-1.079.218-1.343 1.656-1.828 2.609-.89z"/><path d="M65.313 7.328c-1.391.453-2.579 1.484-3.126 2.719-.374.844-.453 2.531-.156 3.312.14.36.125.5-.047.625-.109.079-5.828 4.907-12.672 10.704L36.844 35.233l-15.953.078-15.97.079-.905.359C1.5 36.766.078 38.938.078 41.719c0 1.156.063 1.453.484 2.343.625 1.313 1.563 2.344 2.61 2.891l.844.453.187 2.032c.313 3.515 1.094 6.312 2.594 9.421 1.969 4.047 5.062 7.641 8.812 10.235 1.47 1.015 4.266 2.453 5.907 3.031l1.265.453.063 1.953c.047 1.578.125 2.094.39 2.672.422.938 1.438 1.953 2.375 2.39.72.329.735.329 14.391.329s13.672 0 14.39-.328c.938-.438 1.954-1.453 2.376-2.39.265-.579.343-1.095.39-2.673l.063-1.953 1.265-.453c1.641-.578 4.438-2.016 5.907-3.031 6.578-4.563 10.703-11.672 11.421-19.703l.172-1.985.844-.453c1.047-.547 1.984-1.578 2.61-2.89.421-.891.484-1.188.484-2.344 0-2.797-1.438-4.953-3.938-5.969-.859-.344-1.14-.36-6.078-.438l-5.172-.078 3.97-4.687c2.187-2.578 4.14-4.89 4.327-5.125.313-.39.39-.422.813-.266.765.297 2.437.219 3.297-.156 2.25-.984 3.39-3.594 2.546-5.86-.328-.874-.687-1.265-5.437-6.046-5.578-5.594-5.797-5.766-7.61-5.844-.515-.031-1.109 0-1.328.078zm1.843 3.203c.735.39 9.531 9.344 9.64 9.828.141.516-.155 1.282-.609 1.594-.171.125-.593.235-.953.235-.609 0-.718-.094-5.421-4.813-4.626-4.61-4.813-4.828-4.813-5.39 0-.75.203-1.141.75-1.422.531-.297.875-.313 1.406-.032zm3.578 12.75c-.109.14-2.437 2.907-5.171 6.14l-4.985 5.892H51.11c-8.172 0-9.422-.032-9.234-.22.125-.124 5.188-4.421 11.25-9.53l11-9.313 3.406 3.39c2.89 2.891 3.36 3.422 3.203 3.641zm4.688 15.688c.703.468 1.453 1.718 1.453 2.422 0 1.234-.828 2.5-1.953 3-.594.28-2.094.297-34.938.297H5.687l-.812-.407c-1.328-.656-2-2.156-1.61-3.61.204-.765 1.235-1.858 1.954-2.062.281-.093 14.593-.14 35.015-.125l34.532.032.656.453zm-2.688 9.812c-.375 3.703-1.062 6.188-2.515 9.063C67 64.25 60.75 68.89 53.5 70.25c-1.422.281-2.469.297-13.5.297s-12.078-.016-13.5-.297c-5.281-.984-10.313-3.875-13.594-7.75-3.328-3.938-5.11-8.266-5.64-13.64l-.11-1.047h65.688l-.11.968zM40 73.72c7.484 0 11.36-.047 12.469-.188l1.625-.187-.063 1.297c-.047 1.171-.093 1.328-.484 1.718l-.422.438h-26.25l-.422-.438c-.39-.39-.437-.546-.484-1.718l-.063-1.297 1.625.187c1.11.14 4.985.188 12.469.188z"/><path d="M12.172 52.11c-.531.296-.828 1.015-.703 1.703.14.734 1.516 3.515 2.406 4.843.969 1.453 3.703 4.203 5.188 5.203a21.177 21.177 0 008.812 3.422c2.25.328 3.266.25 3.813-.297a1.462 1.462 0 000-2.078c-.375-.375-.578-.437-2.11-.562-4.406-.39-8.093-2.078-11.093-5.063-1.454-1.453-2.938-3.625-3.657-5.375-.265-.64-.64-1.328-.828-1.531-.437-.453-1.297-.578-1.828-.266zm24.141 12.406c-.61.265-1.032.968-.938 1.562.297 1.875 2.984 1.734 2.984-.14 0-1.032-1.125-1.813-2.046-1.422z"/></g><defs><clipPath id="clip0_15_1675"><path fill="#fff" d="M0 0h80v80H0z"/></clipPath></defs></svg>