<svg width="81" height="80" fill="none" xmlns="http://www.w3.org/2000/svg"><g clip-path="url(#clip0_15_1686)" fill="#265736"><path d="M3.703.281C2.156.812.984 2.11.656 3.641.531 4.219.5 14.594.531 40.469l.047 36.015.328.72c.438.937 1.453 1.952 2.39 2.39l.72.328h31.64l.422-.422a1.49 1.49 0 000-2.125l-.422-.422-15.547-.078-15.546-.078-.422-.438-.438-.421V4.061l.438-.421.422-.438 21.015-.047 21-.031.047 5.188c.047 5.906.078 6.015 1.375 7.312 1.297 1.297 1.406 1.328 7.313 1.375l5.187.047v28.296l.547.548c.484.484.625.547 1.125.468.312-.062.75-.28.969-.5l.406-.39.047-14.89c.015-8.173 0-15.126-.047-15.423-.094-.469-1.172-1.61-7.156-7.61C52.516 3.657 49.109.36 48.844.235 48.406.031 45.672 0 26.406 0 6.031.016 4.422.031 3.703.281zm50.313 9.406l4.218 4.22h-7.453l-.531-.532-.531-.531V9.156c0-2.031.015-3.687.047-3.687.015 0 1.937 1.89 4.25 4.218z"/><path d="M29.328 11.875c-5.297 1.14-9.281 5.016-10.64 10.313-.407 1.593-.407 4.78 0 6.312 1.359 5.14 5.046 8.828 10.187 10.188.797.203 1.64.28 3.188.28 1.546 0 2.39-.077 3.187-.28 5.156-1.376 8.875-5.11 10.188-10.25.406-1.61.406-4.625 0-6.25-1.063-4.235-4-7.735-7.86-9.422-2.516-1.11-5.687-1.454-8.25-.891zm5.781 3.281c7.766 2.406 10.11 12.078 4.282 17.766C33.813 38.39 24.344 36 21.969 28.516c-1.907-5.97 1.734-12.188 7.968-13.61 1.329-.297 3.766-.187 5.172.25z"/><path d="M31.016 18.5l-.438.375-.047 2.438-.047 2.437h-2.187c-2.313 0-2.922.14-3.266.766-.281.547-.187 1.375.219 1.843l.375.438 2.422.047 2.437.047.047 2.437.047 2.422.438.375c.297.25.625.375 1.047.375.421 0 .75-.125 1.046-.375l.438-.375.047-2.422.047-2.437 2.437-.047 2.422-.047.375-.438c.406-.468.5-1.297.219-1.843-.344-.625-.953-.766-3.282-.766h-2.187v-2.188c0-2.328-.14-2.937-.766-3.28-.547-.282-1.375-.188-1.843.218zm-19.5 25.39c-1 .422-1.266 1.72-.5 2.47l.421.437h6.439l.375-.438a1.61 1.61 0 000-2.093l-.375-.438-3.031-.031c-1.656-.016-3.156.016-3.328.094zm12.734.063c-.219.11-.516.453-.672.781-.281.563-.281.594 0 1.157.156.328.453.672.672.78.313.157 3.438.188 14.406.157l14.032-.031.421-.422c.328-.328.438-.594.438-1.063 0-.468-.11-.734-.438-1.062l-.422-.422-14.03-.031c-10.97-.031-14.094 0-14.407.156zm33.469 4.641c-2.39.625-2.438.672-10.36 8.562-5.453 5.422-7.437 7.5-7.859 8.219-2.14 3.61-1.672 8.297 1.156 11.39 1.22 1.313 2.563 2.204 4.141 2.704 2.578.812 4.953.625 7.422-.578 1.25-.61 1.562-.891 5.094-4.391l3.765-3.734.25 1.296c1.031 5.22 6.031 8.704 11.14 7.766 3.782-.687 6.75-3.484 7.72-7.266 1.015-3.968-.735-8.218-4.297-10.484-1.375-.875-3.063-1.344-4.813-1.36l-1.547-.015.094-.547c.64-3.843-.375-7.015-3.031-9.422-2.375-2.14-5.734-2.953-8.875-2.14zm4.11 3.031c1.202.313 2.109.844 2.984 1.75 2.03 2.063 2.453 4.984 1.125 7.625-.375.734-1.125 1.594-3.313 3.813l-2.828 2.859-4.656-4.656-4.657-4.672 2.938-2.89c2.953-2.923 3.61-3.423 5.047-3.829.937-.25 2.406-.266 3.36 0zM54.687 72.75c-2.22 2.188-3.079 2.938-3.813 3.313-2.64 1.328-5.562.906-7.625-1.126-2.094-2.03-2.562-5.062-1.187-7.75.218-.421 1.484-1.843 3.265-3.64l2.89-2.938 4.673 4.657 4.656 4.656-2.86 2.828zm14.562-2.438v6.391l-.625-.219c-1.672-.593-3.203-2.093-3.922-3.828-.5-1.219-.5-3.469-.015-4.672.515-1.218 1.187-2.125 2.14-2.843.64-.485 1.906-1.141 2.39-1.235.016 0 .032 2.875.032 6.407zm5.547-5.171c.953.718 1.625 1.625 2.14 2.843.485 1.204.485 3.454-.015 4.672-.719 1.735-2.25 3.235-3.922 3.828l-.625.22V63.905l.797.297a8.802 8.802 0 011.625.938zM11.516 52.64c-1 .422-1.266 1.72-.5 2.47l.421.437h6.439l.375-.438a1.61 1.61 0 000-2.093l-.375-.438-3.031-.031c-1.656-.016-3.156.016-3.328.094zm12.734.063c-.219.11-.516.453-.672.781-.281.563-.281.594 0 1.157.156.328.453.672.672.78.297.157 2.266.188 8.625.157l8.25-.031.422-.422c.328-.328.437-.594.437-1.063 0-.468-.109-.734-.437-1.062l-.422-.422-8.25-.031c-6.36-.031-8.328 0-8.625.156zM11.516 61.39c-1 .422-1.266 1.72-.5 2.47l.421.437 2.922.047c3.063.047 3.61-.031 4.032-.656.359-.5.297-1.407-.141-1.922l-.375-.438-3.031-.031c-1.656-.016-3.156.016-3.328.094zm12.734.063c-.594.281-.984 1.203-.781 1.766.25.656.61.984 1.172 1.093 1.734.329 2.484-2.078.906-2.89-.438-.219-.813-.219-1.297.031z"/></g><defs><clipPath id="clip0_15_1686"><path fill="#fff" transform="translate(.5)" d="M0 0h80v80H0z"/></clipPath></defs></svg>