<svg width="80" height="80" fill="none" xmlns="http://www.w3.org/2000/svg"><path d="M18.219 7.031C9.14 8.171 2.234 14.86.375 24.297c-.39 1.984-.406 6.515-.016 8.36.797 3.827 2.454 7.28 5.141 10.812l.922 1.234-.5.625c-.266.344-.656 1.031-.86 1.516l-.374.89v8.625c0 9.985-.047 9.61 1.5 11.282 1.187 1.296 2.359 1.796 4.125 1.812 1.171 0 1.453-.062 2.406-.516 1-.468 1.11-.484 1.234-.234.422.75 1.5 1.656 2.578 2.203 1.157.563 1.235.578 2.844.563 1.422 0 1.75-.047 2.5-.406 1.75-.813 3.063-2.266 3.594-3.985.234-.781.312-1.453.312-2.875s.047-1.86.204-1.86c.203 0 6.359 4.891 10.953 8.704 2.343 1.937 2.765 2.187 3.437 2.016.203-.047 1.406-.954 2.688-2.016 4.593-3.813 10.75-8.703 10.953-8.703.156 0 .203.437.203 1.86 0 1.421.078 2.093.312 2.874.532 1.719 1.844 3.172 3.594 3.984.75.36 1.078.407 2.5.407 1.61.015 1.688 0 2.844-.563 1.078-.547 2.156-1.453 2.578-2.203.125-.25.234-.234 1.234.234.953.454 1.235.516 2.407.516 1.765-.016 2.937-.516 4.125-1.812 1.546-1.672 1.5-1.297 1.5-11.282v-8.625l-.375-.89c-.204-.485-.594-1.172-.86-1.516l-.5-.625.922-1.234c3.984-5.235 5.719-10.313 5.453-15.969-.265-5.578-2.344-10.578-5.922-14.313-2.968-3.093-6.28-4.937-10.593-5.875-1.985-.437-6.313-.468-8.204-.062-2.687.578-5.203 1.625-7.187 2.953-2.906 1.953-5.594 4.89-7.375 8.031-.297.547-.594.985-.672.985-.078 0-.375-.438-.672-.985-1.781-3.14-4.469-6.078-7.375-8.03-2.015-1.345-4.593-2.407-7.187-2.938-1.469-.297-5.016-.422-6.547-.235zm5.219 3.188c3.672.562 6.515 1.969 9.28 4.625 2.329 2.234 4.141 4.922 5.391 8 .641 1.562 1.094 2.047 1.891 2.047.813 0 1.25-.485 1.906-2.078 1.938-4.766 5.453-8.829 9.422-10.891 6.688-3.485 15.25-2.078 20.406 3.344 3.5 3.656 5.344 8.796 5.079 14.109-.22 4.64-1.875 8.594-5.47 13.063l-.64.796-1.25.078c-1 .047-1.453.157-2.203.532l-.937.484-.907-.984c-.625-.703-1.203-1.14-1.937-1.5-.985-.485-1.14-.516-2.766-.516-1.61 0-1.781.031-2.765.5a6.526 6.526 0 00-3.141 3.14c-.469 1-.5 1.157-.547 3.266l-.062 2.235h-3.86c-3.406 0-3.875.031-4.172.281-.812.64-.859 1.703-.125 2.39.391.376.422.376 4.297.422l3.89.047v5.61H25.782v-5.61l3.891-.047c3.86-.046 3.906-.046 4.297-.421.484-.47.656-1.141.406-1.75-.36-.86-.703-.922-4.812-.922h-3.75l-.047-2.235c-.063-2.172-.078-2.265-.594-3.312-.688-1.39-1.766-2.453-3.11-3.094-.984-.469-1.156-.5-2.765-.5-1.625 0-1.781.031-2.766.516-.734.36-1.312.797-1.937 1.5l-.906.984-.938-.484c-.75-.375-1.203-.485-2.203-.532l-1.25-.062-.828-1.047c-3.58-4.469-5.345-8.983-5.345-13.672 0-3.047.844-6.562 2.219-9.203 3.453-6.625 10.61-10.234 18.094-9.11zm-2.766 34.375c.672.281 1.344.968 1.688 1.734.265.578.296 1.234.296 10.078 0 8.813-.03 9.5-.296 10.078-1.11 2.454-4.532 2.625-5.907.282l-.437-.75v-9.61c0-9.531 0-9.61.344-10.234.406-.766.89-1.234 1.609-1.547.687-.297 2.047-.313 2.703-.031zM62 44.609c.734.313 1.219.782 1.64 1.563.344.625.344.703.344 10.234v9.61l-.437.75c-1.078 1.843-3.469 2.234-5.063.843-1.171-1.03-1.14-.625-1.14-11.203 0-9 .015-9.484.312-10.125.344-.75.953-1.375 1.641-1.687.64-.282 2-.266 2.703.015zm-50.312 2.22c.234.171.578.546.78.827l.345.516v8.187c0 9.078.046 8.703-1.047 9.532-.469.359-.719.437-1.469.437-1.016 0-1.531-.281-2.125-1.172l-.36-.515v-8.188c0-8.797-.015-8.61.813-9.375.188-.187.531-.422.75-.5.578-.25 1.828-.11 2.313.25zm59.375 0c.234.171.578.546.78.827l.345.516V64.64l-.344.515c-.61.89-1.125 1.172-2.156 1.172-1.032 0-1.547-.281-2.141-1.172l-.36-.515v-8.188c0-8.797-.015-8.61.813-9.375.188-.187.531-.422.75-.5.578-.25 1.828-.11 2.313.25zm-22.391 15.64a494.76 494.76 0 01-2.656 2.156 279.137 279.137 0 00-4.25 3.453L40 69.547l-1.75-1.469a681.66 681.66 0 00-4.266-3.469c-1.375-1.093-2.562-2.062-2.64-2.14-.094-.063 3.812-.125 8.656-.125 4.844 0 8.75.062 8.672.125z" fill="#414042"/><path d="M39.125 50.75c-.781.625-.86 1.703-.172 2.344.516.468 1.094.562 1.719.265 1.469-.687 1-2.89-.625-2.89-.328 0-.75.125-.922.28z" fill="#414042"/></svg>