<svg width="80" height="80" fill="none" xmlns="http://www.w3.org/2000/svg"><g clip-path="url(#clip0_15_1382)" fill="#414042"><path d="M37.344.094c-4.282.297-9.266 1.516-13.282 3.25-2.906 1.266-7.328 3.875-7.89 4.672-.36.515-.297 1.265.156 1.797.766.922 1.344.812 3.625-.703 9.828-6.58 22.797-7.83 33.875-3.297 2.188.89 3.797 1.718 5.703 2.922 13.719 8.718 20.14 24.78 16.172 40.422-1.64 6.437-4.766 11.906-9.531 16.718-3.188 3.219-5.766 5.078-9.766 7.078-13.203 6.563-28.828 4.688-40.187-4.812-5.969-5-10.39-12.281-12.125-20.016-.688-3.062-.875-4.718-.875-8.125-.016-4.015.406-6.937 1.484-10.578.89-2.969 2.438-6.344 4.281-9.328 1.032-1.656 1.11-2.219.407-2.922-.61-.594-1.36-.61-2.032-.047-1.453 1.219-4.484 7.375-5.687 11.547C.5 32.688.094 35.703.094 40.078c.015 3.516.234 5.625.937 8.75C4.25 63.203 15.421 74.813 29.656 78.61a39.789 39.789 0 0027.813-2.672c3.984-1.938 6.984-4.047 10.156-7.11 2.328-2.25 4.016-4.234 5.578-6.562 3.531-5.297 5.656-10.953 6.516-17.422.297-2.25.25-8.11-.094-10.313-1.375-9.015-5.016-16.343-11.234-22.624C62.266 5.719 54.469 1.735 45.89.453c-2-.297-6.625-.5-8.547-.359z"/><path d="M38.906 5.469c-2.015.36-4.718 1.328-7.078 2.531-4.812 2.469-9.265 6.484-12.718 11.453-2.797 4.031-3.391 5.75-2.766 7.906.734 2.5 2.719 3.97 5.375 3.97 1.11 0 1.469-.063 2.219-.423 1.187-.547 2.078-1.484 3-3.125 1.593-2.843 4.437-6.125 6.968-8.047 1.594-1.203 4.563-2.703 6.453-3.234 1.813-.516 2.657-.953 3.422-1.781 2.141-2.328 2-5.781-.312-7.875C42.438 5.922 41.734 5.625 40 5.39c-.219-.016-.703.015-1.094.078zm2.063 3.375c1.328.687 1.625 2.625.547 3.703-.39.39-.907.625-2.219 1.015-2.734.829-5.078 2.032-7.297 3.735-.484.36-.922.672-.969.672-.046 0-.093-.203-.093-.453 0-.688-.672-1.266-1.485-1.266-.922 0-1.484.563-1.484 1.469 0 .515.094.75.437 1.062.235.235.579.438.782.469.328.047.25.172-.844 1.375a32.354 32.354 0 00-4 5.39c-.719 1.204-1.11 1.704-1.547 1.938-.766.438-1.672.422-2.328-.031-1.422-.969-1.563-2.156-.485-4.063.657-1.14.954-1.453.954-1 0 .125.172.375.39.578.828.782 2.297.282 2.516-.875.156-.859-.547-1.765-1.39-1.78-.532 0-.485-.095.75-1.641 2.812-3.532 6.64-6.672 10.39-8.532 1.64-.812 1.922-.89 1.781-.546-.047.109.031.468.156.78.438 1.063 1.766 1.266 2.516.376.484-.563.5-1.25.078-1.844l-.328-.453.594-.156c1.11-.282 1.218-.297 1.687-.22.266.048.656.188.89.298zm-29.125 2.859c-.422.375-.516.563-.516 1.11 0 .546.094.734.516 1.109.281.25.687.453.906.453 1.422 0 2.203-1.719 1.219-2.719-.594-.578-1.453-.562-2.125.047zm43.296.938c-.796.797-.578 2.031.438 2.453 1.547.656 2.813-1.25 1.625-2.453-.344-.328-.61-.453-1.031-.453-.422 0-.688.125-1.031.453zm-11.421 8.922c-1.25.218-2.157.765-3.578 2.203-4.188 4.218-7.422 10.343-8.657 16.359-2.25 11.031.922 22.328 8.47 30.203 1.905 1.969 2.765 2.406 4.812 2.406 1.28 0 1.515-.046 2.453-.515 2.328-1.14 3.578-3.563 3.11-6.063-.25-1.406-.548-1.906-2.126-3.734-.75-.86-1.734-2.125-2.187-2.813-2.86-4.28-4.172-9.453-3.688-14.453.531-5.343 2.422-9.547 6.078-13.515.594-.625 1.219-1.532 1.5-2.11.422-.89.485-1.187.485-2.343 0-1.157-.063-1.454-.485-2.344-.843-1.782-2.312-2.922-4.203-3.266-1-.187-.937-.187-1.984-.015zm1.781 3.125c.719.203 1.64 1.203 1.781 1.937.188 1.047-.047 1.61-1.25 2.953-2.312 2.625-3.828 4.953-4.937 7.672-.5 1.188-.516 1.219-.766.906a1.517 1.517 0 00-1.672-.5c-1.11.375-1.375 1.688-.531 2.532.422.421.563.468 1.156.406l.688-.078-.14.484c-.938 3.266-.892 9.297.093 12.656.297 1 .297 1.078-.063.875-.953-.5-2.234.235-2.234 1.297 0 .766.36 1.281 1.031 1.516.672.218 1.485-.11 1.813-.703.203-.375.25-.297 1.234 1.687 1.188 2.39 2.406 4.188 4.031 5.984 1.625 1.813 1.907 2.61 1.313 3.907-.531 1.172-1.906 1.75-3.203 1.312-.61-.187-2.39-2.031-3.828-3.937-3.22-4.266-5.375-9.766-5.953-15.14-.157-1.563-.188-2.532-.047-2.204.109.281.89.656 1.359.656.219 0 .625-.203.906-.453.422-.375.516-.562.516-1.094 0-1.328-1.531-2-2.516-1.109l-.422.39.11-1.562c.5-7.234 3.5-14.062 8.406-19.172 1.234-1.265 1.922-1.547 3.125-1.218z"/><path d="M40.563 28.266c-1.376 1.437.734 3.515 2.156 2.11.61-.626.578-1.61-.078-2.157-.672-.578-1.5-.563-2.078.047zm.375 34.406c-1.016.406-1.266 1.719-.485 2.5 1.11 1.11 2.89 0 2.484-1.531-.218-.813-1.203-1.281-2-.969zm15.859-38.89c-.734.421-1 1.265-.625 2 .297.578 1.14.984 1.719.843.515-.125 1.172-.922 1.172-1.406 0-1.187-1.282-2-2.266-1.437zm7.266 4.828c-1.875.328-3.641 1.515-4.704 3.156-.687 1.047-1 2.063-1.156 3.625-.172 1.86-.969 3.156-2.328 3.86-.344.171-1.297.406-2.25.53-2.562.329-4.312 1.344-5.484 3.157-1.797 2.812-1.47 6.312.812 8.734C50.516 53.33 52.375 54 55 53.86c4.547-.235 8.703-2.094 11.953-5.344 2.11-2.094 3.5-4.297 4.422-7.031.906-2.64 1.234-6.125.75-7.75-1.094-3.594-4.484-5.75-8.062-5.125zM66.938 32c.734.328 1.53 1.078 1.937 1.813.422.765.36 3.828-.094 5.562-.765 2.86-2.734 5.985-4.937 7.813-2.703 2.25-6.25 3.578-9.547 3.594-1.797 0-3.297-.938-3.938-2.485-.328-.781-.296-2.187.063-3 .719-1.593 1.719-2.234 3.922-2.484 1.734-.188 2.89-.61 3.937-1.39 1.97-1.47 2.625-2.782 3.11-6.173.422-2.89 2.968-4.375 5.547-3.25z"/><path d="M64.36 34.828c-1.22 1.22.265 3.188 1.796 2.36.86-.453 1.016-1.688.313-2.406-.594-.594-1.485-.563-2.11.047zm-2.563 7.656c-.938.391-1.234 1.72-.547 2.438.953 1.016 2.656.36 2.656-1.016a1.53 1.53 0 00-2.11-1.422zm-8.234 2.297c-.844.453-1.032 1.594-.375 2.36.312.359.5.437 1.109.437.61 0 .797-.078 1.11-.437.406-.47.5-1.297.218-1.844-.187-.344-.953-.766-1.36-.766a2.02 2.02 0 00-.702.25zm-43.328-9.109c-1 .328-1.532.672-2.25 1.375-1.657 1.656-2.094 4.266-1.079 6.344 1.047 2.14 4.407 4.375 7.735 5.14 1.547.36 4.375.36 5.875 0 3.375-.812 6.578-2.937 7.703-5.093.625-1.22.703-3.126.203-4.454-.734-1.953-2.625-3.343-4.734-3.484-1.594-.094-2.61.234-4.016 1.297-1.703 1.281-2.625 1.312-4.094.094-1.187-.985-2.015-1.313-3.468-1.375-.75-.032-1.5.03-1.875.156zm2.906 3.297c2.36 1.687 2.812 1.875 4.515 1.875 1.344 0 2.532-.453 3.657-1.375.906-.735 1.234-.875 2-.875 1.343 0 2.312 1.015 2.312 2.422 0 .89-.234 1.297-1.187 2.156-.97.875-2.344 1.64-3.735 2.094-1.062.343-1.531.406-3.125.406-1.61 0-2.047-.047-3.125-.406-2.36-.782-4.578-2.438-4.906-3.641-.188-.719-.016-1.656.406-2.125.86-.969 2.25-1.203 3.188-.531z"/><path d="M22.563 40.14c-.47.204-1 .922-1 1.376 0 .843.75 1.609 1.562 1.609.89 0 1.672-.984 1.484-1.86-.187-.859-1.265-1.453-2.047-1.124zm-10.688.298c-.765.375-1.062 1.203-.703 1.953.469.984 1.672 1.203 2.438.437 1.218-1.234-.188-3.172-1.735-2.39zm-.5 10.796c-1.281 1.141.094 3.172 1.64 2.438 1-.469 1.188-1.625.407-2.406-.64-.64-1.344-.657-2.047-.032zm12.391 1.172c-.875.485-1.032 1.547-.344 2.313.61.687 1.531.719 2.156.078 1.219-1.219-.297-3.234-1.812-2.39zM66 53.875c-.797.64-.89 1.516-.234 2.25 1.14 1.282 3.172-.093 2.437-1.64-.406-.86-1.515-1.172-2.203-.61zM24.984 64.813c-1.28 1.14.078 3.187 1.625 2.453 1-.47 1.188-1.625.407-2.407-.625-.64-1.344-.656-2.032-.046zm30.172 1.39c-.875.344-1.265 1.282-.86 2.125.75 1.61 3.204.782 2.813-.953-.172-.828-1.234-1.453-1.953-1.172z"/></g><defs><clipPath id="clip0_15_1382"><path fill="#fff" d="M0 0h80v80H0z"/></clipPath></defs></svg>