<svg width="80" height="80" fill="none" xmlns="http://www.w3.org/2000/svg"><g clip-path="url(#clip0_15_1411)" fill="#414042"><path d="M38.672.203c-2.594.86-4 3.797-2.969 6.25a4.876 4.876 0 001.938 2.219l.797.468-.032 1.25-.047 1.235-1.64.203c-1.953.219-2.953.406-4.438.844-3.656 1.046-7.312 2.953-10.14 5.265l-1.063.86-1.734-1.72-1.719-1.718.234-.453c.125-.25.313-.875.422-1.375.516-2.547-.828-5.187-3.25-6.375-.953-.469-1.156-.516-2.531-.516-1.344 0-1.578.047-2.5.485-3.328 1.594-4.422 5.547-2.39 8.625 1.484 2.234 4.468 3.187 6.984 2.218l.906-.343 1.625 1.61c.89.89 1.625 1.687 1.625 1.765 0 .078-.375.61-.844 1.172-3.422 4.203-5.64 9.609-6.156 15.015l-.11 1.172-1.25.047-1.25.047-.374-.719C8.03 36.36 6.625 35.468 5 35.36 2.516 35.187.344 36.984.047 39.5c-.39 3.391 3.234 6.126 6.406 4.798a4.876 4.876 0 002.219-1.938l.469-.797 1.25.032 1.25.046.046.625c.079 1.22.516 3.766.907 5.157 1.062 3.812 2.937 7.5 5.344 10.437l.859 1.063-1.703 1.718-1.719 1.72-.766-.36c-1.078-.485-3.046-.469-4.328.015-1.25.485-2.484 1.657-3.125 2.954-.469.953-.515 1.156-.515 2.53 0 1.298.046 1.595.437 2.423 1.563 3.359 5.594 4.5 8.672 2.468 2.234-1.484 3.188-4.468 2.219-6.984l-.344-.906 1.61-1.625c.89-.89 1.687-1.625 1.765-1.625.078 0 .61.375 1.172.843 4.203 3.422 9.61 5.641 15.015 6.157l1.172.11.047 1.25.047 1.25-.719.374c-1.375.735-2.265 2.14-2.375 3.766-.172 2.484 1.625 4.656 4.141 4.953 3.39.39 6.125-3.234 4.797-6.406a4.873 4.873 0 00-1.938-2.22l-.797-.468.032-1.25.047-1.234 1.64-.203c1.953-.22 2.953-.407 4.438-.844 3.656-1.047 7.312-2.953 10.14-5.266l1.063-.86 1.734 1.72 1.719 1.718-.234.454c-.125.25-.313.875-.422 1.375-.516 2.546.828 5.187 3.25 6.375.953.468 1.156.515 2.531.515 1.297 0 1.594-.047 2.422-.437 3.375-1.578 4.516-5.578 2.469-8.672-1.485-2.235-4.47-3.188-6.985-2.219l-.906.344-1.625-1.61c-.89-.89-1.625-1.687-1.625-1.765 0-.078.375-.61.844-1.172 3.422-4.203 5.64-9.61 6.156-15.016l.11-1.172 1.25-.047 1.25-.046.374.718c.735 1.375 2.141 2.266 3.766 2.375 2.484.172 4.656-1.625 4.953-4.14.39-3.39-3.234-6.125-6.406-4.797a4.88 4.88 0 00-2.219 1.937l-.469.797-1.25-.031-1.234-.047-.203-1.64c-.219-1.954-.406-2.954-.844-4.438-1.047-3.656-2.953-7.313-5.266-10.14l-.859-1.063 1.703-1.719 1.719-1.719.766.36c1.078.484 3.046.468 4.328-.016 1.25-.484 2.484-1.656 3.125-2.953.469-.953.515-1.156.515-2.531 0-1.297-.062-1.61-.437-2.438A5.905 5.905 0 0064.25 7.61c-2.234 1.485-3.188 4.469-2.219 6.985l.344.906-1.61 1.625c-.89.89-1.687 1.625-1.765 1.625-.078 0-.61-.375-1.172-.844-4.203-3.422-9.61-5.64-15.016-6.156l-1.171-.11-.047-1.25-.047-1.25.719-.375c3.25-1.718 3.156-6.609-.157-8.234-1.015-.484-2.5-.625-3.437-.328zm2.094 3.14c1.125.594 1 2.344-.203 2.75-1.063.344-2.047-.312-2.047-1.406 0-1.187 1.187-1.89 2.25-1.343zM14.14 10.22c2.171 1.671.984 5.03-1.75 4.984-2.875-.031-3.688-3.906-1.125-5.25.796-.422 2.125-.297 2.875.266zm55.047.046c.843.672 1.156 1.344 1.078 2.422-.172 2.766-3.766 3.563-5.141 1.14-.484-.874-.469-2.062.078-2.858.875-1.329 2.781-1.672 3.984-.704zm-25.016 4.813C54.703 16.78 63.14 25.25 64.953 35.938c.328 1.984.328 6.14 0 8.124a25.461 25.461 0 01-20.89 20.89c-1.985.329-6.141.329-8.126 0a25.461 25.461 0 01-20.89-20.89c-.328-1.984-.328-6.14 0-8.125 1.64-9.656 8.625-17.515 18-20.234 1.328-.375 3.516-.781 5.078-.922 1.188-.11 4.578.063 6.047.297zM5.469 38.672c.5.265.843 1.093.703 1.687-.266 1.063-1.688 1.484-2.485.75-1.359-1.266.125-3.297 1.782-2.437zm70.89.25c.72.687.579 1.968-.28 2.406-.891.469-1.876.11-2.173-.781-.515-1.547 1.266-2.735 2.453-1.625zM14 65.187c.766.532 1.219 1.438 1.203 2.422-.031 2.875-3.906 3.688-5.25 1.125-.422-.797-.297-2.125.266-2.875.906-1.172 2.61-1.469 3.781-.672zm55.078.047c1.281.828 1.61 2.766.656 3.953-.671.844-1.359 1.157-2.421 1.078-1.094-.062-1.907-.625-2.344-1.64-1.11-2.516 1.781-4.89 4.11-3.39zm-27.984 9.063c.797.797.328 2.25-.813 2.5-.61.14-1.343-.188-1.61-.72a1.511 1.511 0 012.423-1.78z"/><path d="M35.484 22.593c-.203.141-.453.5-.578.782-.297.703.016 1.5.735 1.86.984.515 2.172-.22 2.172-1.329 0-.656-.235-1.047-.782-1.328-.593-.297-1.093-.297-1.547.015zm13.766.688c-3.406.516-5.938 4.063-5.344 7.469.219 1.25.344 1.593 1.047 2.64 1.453 2.203 4.438 3.328 7 2.641 1.813-.484 3.516-1.86 4.234-3.453 2.235-4.86-1.687-10.094-6.937-9.297zm1.922 3.14c1.406.36 2.562 1.829 2.578 3.282 0 .984-.672 2.281-1.5 2.844-.969.672-2.281.75-3.406.203-2.907-1.422-2.407-5.578.765-6.36.688-.156.813-.156 1.563.032zm-27.282-.578c-1.14.438-1.812.875-2.468 1.579-3 3.25-1.157 8.578 3.203 9.28 1.719.266 3.39-.234 4.656-1.39 2.938-2.703 2.188-7.5-1.437-9.187-1.063-.5-3.032-.641-3.954-.282zM26.657 29c.735.343 1.188 1.047 1.281 1.953.078.922-.156 1.578-.78 2.094-2.298 1.937-5.392-1.063-3.532-3.438.64-.828 2-1.094 3.031-.61zm10.124-1.5c-.484.187-.843.765-.843 1.36 0 .655.874 4.312 1.171 4.89.313.61 1.157.86 1.891.547.594-.25.844-.64.844-1.375 0-.594-.688-3.844-.969-4.531-.344-.875-1.219-1.25-2.094-.891zm2.672 11.078c-.953.39-1.25 1.688-.562 2.422 1.234 1.312 3.234-.063 2.484-1.703-.313-.688-1.188-1.016-1.922-.719zm20.25.078c-.875.484-1.031 1.547-.344 2.313 1.172 1.312 3.203-.047 2.438-1.641-.39-.828-1.297-1.11-2.094-.672zm-36.5 3.641c-.453.11-.969.64-1.094 1.094-.14.593.203 1.421.703 1.687.875.453 1.735.188 2.172-.656.563-1.094-.562-2.438-1.78-2.125zm27.407 4.937c-1.75.719-2.922 2.094-3.376 3.953-.453 1.844.11 3.781 1.516 5.188 1.906 1.922 5.063 2.14 7.297.5 1.266-.938 2.234-2.86 2.234-4.453 0-1.547-.937-3.47-2.156-4.391-1.531-1.172-3.797-1.5-5.516-.797zm3.296 3.063c.625.328 1.25 1.39 1.25 2.125 0 .734-.625 1.796-1.25 2.125-.765.406-1.86.39-2.5-.063-.86-.578-1.172-1.125-1.172-2.063 0-.937.313-1.484 1.172-2.078.64-.437 1.735-.453 2.5-.047zM29.453 49.28c-3.375.83-4.656 4.985-2.344 7.563 2.297 2.547 6.266 1.938 7.688-1.187 1.61-3.484-1.61-7.313-5.344-6.375zm1.735 3.142c1.03.421 1.218 1.765.343 2.5-1 .843-2.468.171-2.468-1.125.015-.688.234-1.032.875-1.375.562-.282.578-.282 1.25 0zm10.906 2.703c-1.188.953-.625 2.734.875 2.734 1.11 0 1.828-1.062 1.406-2.093-.36-.844-1.61-1.188-2.281-.641z"/></g><defs><clipPath id="clip0_15_1411"><path fill="#fff" d="M0 0h80v80H0z"/></clipPath></defs></svg>