<svg width="80" height="80" fill="none" xmlns="http://www.w3.org/2000/svg"><g clip-path="url(#clip0_15_1431)" fill="#414042"><path d="M.797.219C-.031.672.016-.312 0 21.14c0 16.985.03 20.032.219 20.407.547 1.031 2.14 1.031 2.687 0 .188-.375.219-2.203.219-11.312v-10.86H60v4.219l-.422-.172c-.234-.094-1-.203-1.688-.25-3.14-.203-6.093 1.406-7.78 4.234-.813 1.375-1.329 1.891-2.704 2.704-3.375 2-4.953 5.75-3.969 9.437.172.64.313 1.547.313 2.016 0 .468-.14 1.375-.313 2.015-.984 3.688.594 7.438 3.97 9.438 1.374.812 1.89 1.328 2.702 2.703.61 1.015 2.516 3.031 2.86 3.031.093 0 .156 2.453.156 6.563 0 4.734.047 6.656.187 6.953.204.468.86.86 1.422.86.188 0 1.344-.61 2.547-1.345 1.188-.734 2.297-1.406 2.453-1.484.25-.14.266.063.266 3.219v3.36H3.125V65.702c0-12.14.016-11.828-.86-12.234-.515-.235-.89-.235-1.406 0-.89.406-.86.015-.86 13.156 0 9.063.048 12.219.188 12.516.407.922-1.625.86 31.438.86H62.03l.5-.454.516-.453.078-4.469.078-4.469 2.406 1.485c2.75 1.687 3.047 1.765 3.86.953l.53-.531v-6.657c0-4.172.063-6.656.157-6.656.36 0 2.25-2.016 2.828-3 .782-1.344 1.36-1.922 2.735-2.734 2.828-1.688 4.453-4.657 4.218-7.782-.046-.687-.187-1.593-.328-2.015-.297-.985-.297-2.328 0-3.313.14-.422.282-1.328.328-2.015.235-3.125-1.39-6.094-4.218-7.781-1.375-.813-1.953-1.391-2.72-2.72-1.858-3.187-5.733-4.921-9.062-4.046l-.812.203V12.391c0-12.11.016-11.797-.86-12.203C61.642-.11 1.329-.078.797.218zM60 9.688v6.562H3.125V3.125H60v6.563zm-.781 16.875c1.53.406 3.14.39 4.734-.016 1.61-.406 2.89-.328 4.063.25 1.078.547 1.687 1.156 2.484 2.5a9.264 9.264 0 003.328 3.312c1.313.782 1.953 1.407 2.5 2.5.578 1.172.656 2.47.25 4.016a9.547 9.547 0 000 4.875c.75 2.813-.172 5-2.719 6.5a9.392 9.392 0 00-3.36 3.328c-.796 1.344-1.405 1.953-2.483 2.5-1.172.578-2.454.656-4.063.25a9.189 9.189 0 00-4.781 0c-2.922.75-5.031-.125-6.547-2.734A9.27 9.27 0 0049.28 50.5c-2.625-1.516-3.484-3.61-2.734-6.547.187-.719.328-1.765.328-2.39 0-.625-.14-1.672-.328-2.391-.75-2.938.11-5.031 2.734-6.547a9.27 9.27 0 003.344-3.344c1.547-2.671 3.594-3.5 6.594-2.718zm4 33.046c.422.141 1.422.297 2.218.344l1.438.094v8.703l-1.281-.812c-3.922-2.454-4.016-2.485-5.266-1.72-.39.25-1.469.923-2.39 1.485L56.25 68.75v-8.703l1.453-.094c.781-.062 1.75-.203 2.14-.328.938-.297 2.422-.312 3.376-.016z"/><path d="M8.5 8.266c-.875.375-1.125 1.703-.469 2.468.313.36.5.438 1.11.438.937 0 1.484-.547 1.484-1.485 0-1.093-1.125-1.843-2.125-1.421zm9.375 0c-.875.375-1.125 1.703-.469 2.468.313.36.5.438 1.11.438.937 0 1.484-.547 1.484-1.485 0-1.093-1.125-1.843-2.125-1.421zm9.375 0c-.875.375-1.125 1.703-.469 2.468.313.36.5.438 1.11.438.937 0 1.484-.547 1.484-1.485 0-1.093-1.125-1.843-2.125-1.421zm10.688.094c-.532.296-.75.687-.75 1.359 0 .64.312 1.109.89 1.359.328.125 2.672.172 8.625.14l8.172-.046.375-.438a1.61 1.61 0 000-2.093l-.375-.438-8.266-.031c-7.062-.031-8.312 0-8.672.187zM59.14 30.25c-.593.125-1.828.594-2.718 1.031-1.422.672-1.828.969-3 2.14-1.172 1.173-1.469 1.579-2.14 3C50.39 38.235 50 39.829 50 41.564c0 1.734.39 3.328 1.281 5.14.672 1.422.969 1.813 2.14 2.984 1.485 1.485 2.938 2.344 5.017 2.985 1.687.531 4.578.531 6.25 0 4-1.25 6.75-4 7.984-7.984.531-1.688.531-4.563 0-6.25-1.219-3.954-3.984-6.735-7.906-7.97-1.454-.452-4.11-.562-5.625-.218zm5.141 3.36c3.156 1.046 5.438 4.062 5.672 7.484.25 3.656-2.11 7.172-5.61 8.39-4.406 1.532-9.062-.687-10.734-5.109-.328-.86-.39-1.281-.39-2.813 0-2.062.312-3.14 1.375-4.734 2.047-3.094 6.062-4.422 9.687-3.219z"/><path d="M64.297 38.063c-.25.125-1.188.953-2.063 1.812l-1.593 1.594-.938-.89c-.797-.766-1.016-.891-1.531-.891-.328 0-.75.11-.938.234-.422.297-.734 1.203-.578 1.672.156.516 2.86 3.25 3.469 3.516.406.172.64.187 1.031.047.672-.22 5.156-4.75 5.313-5.344.156-.672-.266-1.5-.907-1.766-.687-.281-.687-.281-1.265.016zM10.86 26.766c-.735.734-.735 1.359 0 2.093l.53.532 2.922-.047 2.907-.047.375-.438c.25-.297.375-.625.375-1.047 0-.421-.125-.75-.375-1.046l-.375-.438-2.907-.047-2.921-.047-.532.532zm14-.266c-.204.14-.454.5-.579.781-.187.454-.187.61 0 1.063.453 1.078-.031 1.031 9.89 1.031 6.595 0 9.048-.047 9.345-.187.453-.203.859-.86.859-1.375 0-.516-.406-1.172-.86-1.375-.296-.14-2.75-.188-9.343-.188-8.016 0-8.984.031-9.313.25zM10.844 36.781c-.719.719-.719 1.344 0 2.063l.531.531h12.594c9.422 0 12.687-.047 12.984-.188.453-.203.86-.859.86-1.374 0-.516-.407-1.172-.86-1.376-.297-.14-3.562-.187-12.984-.187H11.375l-.531.531zM.797 46.469c-1.36.75-.781 2.906.765 2.906.797 0 1.563-.766 1.563-1.547 0-1.172-1.297-1.937-2.328-1.36zm10.063.297c-.735.734-.735 1.359 0 2.093l.53.532 2.922-.047 2.907-.047.375-.438c.25-.297.375-.625.375-1.047 0-.421-.125-.75-.375-1.046l-.375-.438-2.907-.047-2.921-.047-.532.532zm13.53-.266c-.203.14-.453.5-.578.781-.187.453-.187.61 0 1.063.438 1.047.297 1.031 6.86 1.031 6.406 0 6.578-.016 6.953-.86.234-.515.234-.89 0-1.406-.375-.843-.547-.859-6.953-.859-5.219 0-5.953.031-6.281.25zM10.844 56.781c-.719.719-.719 1.344 0 2.063l.531.53H27.25c17.266 0 16.531.032 16.938-.858.234-.516.234-.891 0-1.407-.407-.89.328-.86-16.938-.86H11.375l-.531.532zm0 10c-.719.719-.719 1.344 0 2.063l.531.53H27.25c17.266 0 16.531.032 16.938-.858.234-.516.234-.891 0-1.407-.407-.89.328-.86-16.938-.86H11.375l-.531.532z"/></g><defs><clipPath id="clip0_15_1431"><path fill="#fff" d="M0 0h80v80H0z"/></clipPath></defs></svg>