<svg width="24" height="25" fill="none" xmlns="http://www.w3.org/2000/svg"><path opacity=".4" d="M2 13.47V7.49C2 4.73 4.24 2.5 7 2.5h10c2.76 0 5 2.23 5 4.99v6.98c0 2.75-2.24 4.98-5 4.98h-1.5c-.31 0-.61.15-.8.4l-1.5 1.99c-.66.88-1.74.88-2.4 0l-1.5-1.99c-.16-.22-.52-.4-.8-.4H7c-2.76 0-5-2.23-5-4.98v-1z" fill="#2A332E"/><path d="M12 12.5c-.56 0-1-.45-1-1s.45-1 1-1 1 .45 1 1-.44 1-1 1zm4 0c-.56 0-1-.45-1-1s.45-1 1-1 1 .45 1 1-.44 1-1 1zm-8 0c-.56 0-1-.45-1-1s.45-1 1-1 1 .45 1 1-.44 1-1 1z" fill="#2A332E"/></svg>