<svg width="72" height="72" fill="none" xmlns="http://www.w3.org/2000/svg"><g clip-path="url(#clip0_15_1280)" filter="url(#filter0_d_15_1280)"><path fill-rule="evenodd" clip-rule="evenodd" d="M68 32c0 17.673-14.327 32-32 32C18.327 64 4 49.673 4 32 4 14.327 18.327 0 36 0c17.673 0 32 14.327 32 32zm-30.853-8.376c-3.113 1.294-9.333 3.974-18.662 8.038-1.515.603-2.308 1.192-2.38 1.768-.123.974 1.097 1.358 2.758 1.88.226.07.46.144.7.222 1.633.531 3.831 1.153 4.974 1.177 1.036.023 2.193-.405 3.47-1.281 8.716-5.884 13.215-8.858 13.498-8.922.2-.045.475-.102.662.064.188.167.17.482.15.566-.121.515-4.909 4.966-7.386 7.269a86.82 86.82 0 00-1.432 1.343c-.251.26-.507.507-.752.744-1.518 1.464-2.657 2.56.063 4.353 1.306.86 2.352 1.573 3.395 2.283 1.14.776 2.276 1.55 3.746 2.514.374.245.732.5 1.08.749 1.327.945 2.518 1.794 3.99 1.659.854-.079 1.738-.883 2.186-3.281 1.06-5.667 3.144-17.946 3.626-23.006a5.644 5.644 0 00-.054-1.26c-.043-.25-.132-.604-.455-.867-.384-.31-.976-.376-1.24-.372-1.204.021-3.05.663-11.937 4.36z" fill="#fff"/></g><defs><clipPath id="clip0_15_1280"><path fill="#fff" transform="translate(4)" d="M0 0h64v64H0z"/></clipPath><filter id="filter0_d_15_1280" x="0" y="0" width="72" height="72" filterUnits="userSpaceOnUse" color-interpolation-filters="sRGB"><feFlood flood-opacity="0" result="BackgroundImageFix"/><feColorMatrix in="SourceAlpha" values="0 0 0 0 0 0 0 0 0 0 0 0 0 0 0 0 0 0 127 0" result="hardAlpha"/><feOffset dy="4"/><feGaussianBlur stdDeviation="2"/><feComposite in2="hardAlpha" operator="out"/><feColorMatrix values="0 0 0 0 0 0 0 0 0 0 0 0 0 0 0 0 0 0 0.25 0"/><feBlend in2="BackgroundImageFix" result="effect1_dropShadow_15_1280"/><feBlend in="SourceGraphic" in2="effect1_dropShadow_15_1280" result="shape"/></filter></defs></svg>