<svg width="64" height="64" fill="none" xmlns="http://www.w3.org/2000/svg"><path d="M0 64l4.499-16.435A31.646 31.646 0 01.267 31.71C.275 14.227 14.5 0 31.98 0c8.483.003 16.446 3.307 22.435 9.301 5.987 5.995 9.283 13.963 9.28 22.438-.008 17.485-14.235 31.712-31.715 31.712a31.733 31.733 0 01-15.168-3.862L0 64zm17.592-10.152c4.47 2.653 8.736 4.243 14.379 4.245 14.528 0 26.362-11.824 26.37-26.36.006-14.565-11.773-26.373-26.349-26.378-14.539 0-26.365 11.824-26.37 26.357-.003 5.933 1.735 10.376 4.655 15.024l-2.664 9.728 9.979-2.616zm30.365-14.57c-.197-.331-.725-.529-1.52-.926-.792-.397-4.688-2.315-5.416-2.579-.725-.264-1.253-.397-1.784.398-.528.792-2.048 2.578-2.509 3.106-.461.528-.925.595-1.717.198-.792-.398-3.347-1.232-6.374-3.934-2.354-2.101-3.946-4.696-4.408-5.49-.461-.792-.048-1.222.347-1.616.357-.355.792-.926 1.19-1.39.402-.458.533-.789.8-1.32.263-.528.133-.992-.067-1.389-.2-.395-1.784-4.296-2.443-5.883-.645-1.544-1.299-1.336-1.784-1.36l-1.52-.026c-.528 0-1.387.197-2.112.992-.725.794-2.773 2.709-2.773 6.61 0 3.902 2.84 7.67 3.234 8.198.398.528 5.587 8.533 13.536 11.965a45.838 45.838 0 004.518 1.67c1.898.602 3.626.517 4.992.314 1.522-.227 4.688-1.917 5.349-3.768.661-1.853.661-3.44.461-3.77z" fill="#fff"/></svg>