<svg width="40" height="40" fill="none" xmlns="http://www.w3.org/2000/svg"><g clip-path="url(#clip0_225_514)" fill="#35AE5D" stroke="#35AE5D" stroke-width=".3"><path d="M31.138 17.37a1.346 1.346 0 00-1.094-.923l-6.1-.886-2.728-5.528A1.346 1.346 0 0020 9.277c-.52 0-.986.29-1.216.756l-2.728 5.528-6.1.886a1.348 1.348 0 00-1.095.923 1.348 1.348 0 00.343 1.39l4.415 4.302-1.042 6.076c-.088.512.118 1.02.539 1.326a1.35 1.35 0 001.428.103L20 27.7l5.456 2.868a1.36 1.36 0 001.428-.103c.42-.305.626-.813.539-1.326l-.412-2.404a.632.632 0 00-1.245.214l.412 2.403a.094.094 0 01-.037.091c-.042.03-.072.02-.098.007l-5.75-3.023a.631.631 0 00-.587 0l-5.751 3.023a.092.092 0 01-.134-.098l1.098-6.402a.631.631 0 00-.181-.56l-4.652-4.534a.094.094 0 01-.024-.095.093.093 0 01.075-.063l6.429-.934a.632.632 0 00.476-.346l2.875-5.825c.031-.064.134-.064.165 0l2.876 5.825c.092.187.27.316.475.346l6.43.934a.093.093 0 01.051.158l-4.652 4.535a.631.631 0 00-.182.559l.347 2.023a.631.631 0 101.245-.214l-.291-1.696 4.414-4.303c.373-.363.504-.895.343-1.389zM3.631 19.369h-3a.632.632 0 000 1.263h3a.632.632 0 100-1.264zm35.737 0h-3a.632.632 0 100 1.263h3a.631.631 0 100-1.264zM7.98 31.128l-2.122 2.12a.631.631 0 10.893.894l2.121-2.121a.631.631 0 10-.893-.893zm25.269-25.27l-2.122 2.12a.631.631 0 10.893.894l2.122-2.121a.632.632 0 10-.893-.893zM20 35.737a.632.632 0 00-.632.632v3a.631.631 0 101.263 0v-3a.632.632 0 00-.631-.632zm0-31.474a.632.632 0 00.631-.631v-3a.632.632 0 00-1.263 0v3c0 .348.283.631.632.631zm12.02 26.865a.631.631 0 10-.893.893l2.122 2.12a.63.63 0 00.893 0 .631.631 0 000-.892l-2.122-2.122zM7.979 8.872a.63.63 0 00.893 0 .632.632 0 000-.893L6.751 5.858a.632.632 0 00-.893.893l2.121 2.121z"/></g><defs><clipPath id="clip0_225_514"><path fill="#fff" d="M0 0h40v40H0z"/></clipPath></defs></svg>