<svg width="40" height="40" fill="none" xmlns="http://www.w3.org/2000/svg"><g clip-path="url(#clip0_225_496)"><path d="M36.49.539a.728.728 0 00-.366-.454.728.728 0 00-.985.305c0 .02-3.687 7.173-15.004 8.42a14.38 14.38 0 00-4.278 1.14 11.885 11.885 0 00-5.705 5.228 12.283 12.283 0 00-1.403 7.156 12.041 12.041 0 001.76 5.074C8.5 28.85 2.124 33.84 1.549 39.196a.728.728 0 001.447.153c.527-4.78 6.51-9.416 8.375-10.76 2.24 2.75 5.592 4.303 9.19 4.556a15.54 15.54 0 007.08-1.206 16.238 16.238 0 006.24-4.636c4.315-5.226 6.37-14.011 2.61-26.764zm-24.702 26.15a10.459 10.459 0 01-.732-1.368 10.614 10.614 0 01-.844-3.144 10.822 10.822 0 011.206-6.312 10.453 10.453 0 015.026-4.595 12.943 12.943 0 013.852-1.01c7.47-.804 11.864-4.129 14.132-6.54a30.83 30.83 0 01-6.715 11.807l-.442-4.454a.728.728 0 10-1.447.14l.566 5.726c-3.38 3.429-8.08 6.875-14.602 9.75zm20.967-.319v.005a14.783 14.783 0 01-5.677 4.237 14.073 14.073 0 01-6.433 1.078 11.503 11.503 0 01-7.98-3.808 54.792 54.792 0 006.939-3.687l6.389 1.207a.728.728 0 00.26-1.432l-4.908-.928a42.432 42.432 0 006.3-5.295.734.734 0 00.096-.1c5.074-5.284 7.233-10.51 8.134-13.727 2.484 10.598.583 17.972-3.12 22.45z" fill="#35AE5D"/></g><defs><clipPath id="clip0_225_496"><path fill="#fff" d="M0 0h40v40H0z"/></clipPath></defs></svg>