<svg width="36" height="36" fill="none" xmlns="http://www.w3.org/2000/svg"><g clip-path="url(#clip0_225_505)"><path d="M30.317 13.69v-1.385c0-3.313-1.173-6.39-3.298-8.675C24.841 1.286 21.846 0 18.58 0h-1.142c-3.268 0-6.263 1.286-8.44 3.63C6.872 5.914 5.7 8.992 5.7 12.305v1.384c-2.58.174-4.629 2.322-4.629 4.946v2.163a4.961 4.961 0 004.954 4.954h2.79a.91.91 0 00.908-.907V14.582a.91.91 0 00-.907-.908H7.514v-1.369c0-5.982 4.266-10.49 9.915-10.49h1.142c5.657 0 9.915 4.508 9.915 10.49v1.369h-1.3a.91.91 0 00-.908.908v10.255c0 .5.408.907.907.907h1.271c-.37 4.735-3.63 5.832-5.143 6.081a3.191 3.191 0 00-3.033-2.2h-2.268a3.189 3.189 0 00-3.184 3.183A3.195 3.195 0 0018.012 36h2.276a3.19 3.19 0 003.07-2.344c.742-.106 1.914-.371 3.079-1.052 1.64-.96 3.585-2.92 3.842-6.867a4.96 4.96 0 004.651-4.946v-2.163a4.941 4.941 0 00-4.613-4.939zM7.922 23.93H6.04a3.14 3.14 0 01-3.138-3.14v-2.162a3.14 3.14 0 013.138-3.139h1.883v8.44zm12.366 10.255h-2.276a1.369 1.369 0 110-2.738h2.276a1.369 1.369 0 110 2.738zM33.122 20.79a3.14 3.14 0 01-3.138 3.138H28.1v-8.44h1.883a3.14 3.14 0 013.138 3.139v2.163z" fill="#35AE5D"/></g><defs><clipPath id="clip0_225_505"><path fill="#fff" d="M0 0h36v36H0z"/></clipPath></defs></svg>