<svg width="36" height="36" fill="none" xmlns="http://www.w3.org/2000/svg"><g clip-path="url(#clip0_225_550)"><path d="M34.557 8.487a.943.943 0 00-.092-.403.88.88 0 00-.615-.486L18.373.091a.918.918 0 00-.798 0L1.945 7.667a.915.915 0 00-.516.79v19.048c0 .35.197.669.516.82l15.63 7.576c.007 0 .007 0 .015.008a.27.27 0 01.068.03c.008 0 .015.008.03.008l.07.023c.007 0 .014.007.022.007.023.008.053.008.076.015h.023c.03 0 .068.008.098.008s.069 0 .1-.008h.022a.27.27 0 00.076-.015c.008 0 .015-.007.023-.007l.068-.023c.008 0 .015-.008.03-.008a.27.27 0 00.069-.03c.008 0 .008 0 .015-.008l15.675-7.598a.919.919 0 00.517-.82V8.51c-.015-.008-.015-.015-.015-.023zM17.97 1.922l13.555 6.573-4.992 2.424-13.555-6.573 4.992-2.424zm0 13.145L4.415 8.495l6.473-3.138 13.556 6.572-6.474 3.138zM3.252 9.961l13.806 6.694v16.967L3.252 26.928V9.96zm15.63 23.66V16.656l6.48-3.146v4.438c0 .501.411.912.913.912.501 0 .911-.41.911-.912V12.62l5.547-2.69v16.966l-13.851 6.725z" fill="#35AE5D"/></g><defs><clipPath id="clip0_225_550"><path fill="#fff" d="M0 0h36v36H0z"/></clipPath></defs></svg>