<svg width="30" height="36" fill="none" xmlns="http://www.w3.org/2000/svg"><path d="M29.382 31.201L27.311 7.854a.888.888 0 00-.894-.812H22.05C22.042 3.16 18.883 0 15 0c-3.882 0-7.042 3.16-7.05 7.042H3.585c-.462 0-.85.35-.894.812L.618 31.201v.082C.618 33.883 3.01 36 5.946 36h18.108c2.936 0 5.328-2.116 5.328-4.717v-.082zM15 1.788a5.268 5.268 0 015.261 5.254H9.74A5.268 5.268 0 0115 1.788zm9.054 32.416H5.946c-1.937 0-3.517-1.29-3.54-2.891L4.405 8.83H7.95v3.138c0 .492.402.894.894.894a.897.897 0 00.894-.894V8.83H20.26v3.138c0 .492.403.894.895.894a.897.897 0 00.894-.894V8.83h3.547l1.997 22.49c-.022 1.595-1.602 2.884-3.54 2.884z" fill="#35AE5D"/><path d="M18.719 18.615l-5.276 5.276-2.154-2.154a.895.895 0 10-1.267 1.267l2.787 2.787a.897.897 0 001.267 0l5.91-5.91a.895.895 0 000-1.266.909.909 0 00-1.267 0z" fill="#35AE5D"/></svg>